<svg width="28" height="36" viewBox="0 0 28 36" fill="none" xmlns="http://www.w3.org/2000/svg">
<path d="M10.3709 26.327C10.4998 26.9169 10.7139 27.4002 11.0151 27.7793C11.5726 28.5795 12.3891 28.9789 13.4629 28.9789C14.3644 28.9789 15.1476 28.7261 15.814 28.2211C16.4793 27.7162 16.8122 27.0009 16.8122 26.0748C16.8122 25.0648 16.3937 24.2863 15.5561 23.7389C14.7185 23.1924 13.6769 22.7081 12.4319 22.2866C11.1858 21.8665 9.84406 21.4242 8.4061 20.9606C6.96664 20.4981 5.62539 19.8667 4.38034 19.0665C3.13428 18.2673 2.09372 17.204 1.25613 15.8781C0.418542 14.5526 0 12.8165 0 10.6696C0 9.15463 0.278525 7.75565 0.837588 6.47118C1.39514 5.18771 2.24381 4.0622 3.38208 3.09367C4.51935 2.12613 5.95882 1.36838 7.69796 0.82093C9.4371 0.274466 11.4875 0 13.8497 0C22.567 0 26.9262 3.57793 26.9262 10.7328H16.8772C16.8772 9.25978 16.6082 8.26064 16.0718 7.73392C15.5344 7.20819 14.7724 6.94459 13.7852 6.94459C12.9255 6.94459 12.2173 7.1766 11.6593 7.63915C11.1007 8.10268 10.8217 8.75478 10.8217 9.59645C10.8217 10.565 11.2402 11.2911 12.0778 11.7744C12.9154 12.2587 13.9559 12.6896 15.202 13.0687C16.4471 13.4474 17.7888 13.8482 19.2278 14.2683C20.6662 14.6894 22.0075 15.2892 23.2535 16.0676C24.4986 16.8471 25.5402 17.8986 26.3777 19.2245C27.2153 20.5504 27.6339 22.3083 27.6339 24.4961C27.6339 26.1799 27.312 27.7162 26.6678 29.1048C26.0237 30.4939 25.111 31.6934 23.9305 32.7034C22.7489 33.7134 21.2893 34.4712 19.5501 34.9762C17.811 35.4812 15.8462 35.7339 13.6563 35.7339C8.80299 35.7339 5.31463 34.7871 3.18868 32.893C1.06273 30.9989 0 28.1797 0 24.4329H10.1775C10.1775 25.1068 10.242 25.7381 10.3709 26.327Z" fill="#D2632C"/>
</svg>
